<?xml version="1.0" encoding="UTF-8"?><svg id="Layer_2" xmlns="http://www.w3.org/2000/svg" viewBox="0 0 656.59 83.2"><defs><style>.cls-1{fill:#fff;}</style></defs><g id="Layer_1-2"><g><path class="cls-1" d="M14.1,72.8c-4.47-1.73-7.93-4.17-10.4-7.3-2.47-3.13-3.7-6.77-3.7-10.9H12.3c0,2.73,1.58,4.93,4.75,6.6,3.17,1.67,7.35,2.5,12.55,2.5,5.6,0,9.88-.82,12.85-2.45,2.97-1.63,4.45-3.98,4.45-7.05,0-2.6-1.42-4.48-4.25-5.65-2.83-1.17-7.35-1.75-13.55-1.75-9.8,0-16.9-1.47-21.3-4.4-4.4-2.93-6.6-7.67-6.6-14.2s2.42-11.73,7.25-15.2c4.83-3.47,11.88-5.2,21.15-5.2,5.6,0,10.55,.87,14.85,2.6,4.3,1.73,7.63,4.17,10,7.3,2.37,3.13,3.55,6.77,3.55,10.9h-12.3c0-2.73-1.48-4.93-4.45-6.6-2.97-1.67-6.85-2.5-11.65-2.5-5.2,0-9.17,.73-11.9,2.2-2.73,1.47-4.1,3.63-4.1,6.5,0,2.47,1.3,4.23,3.9,5.3,2.6,1.07,6.87,1.6,12.8,1.6,10.13,0,17.5,1.52,22.1,4.55,4.6,3.03,6.9,7.88,6.9,14.55s-2.53,12.12-7.6,15.75c-5.07,3.63-12.43,5.45-22.1,5.45-5.87,0-11.03-.87-15.5-2.6Z"/><path class="cls-1" d="M74.7,9.1h44.5c5.53,0,10,1.78,13.4,5.35,3.4,3.57,5.1,8.28,5.1,14.15s-1.7,10.13-5.1,13.6c-3.4,3.47-7.87,5.2-13.4,5.2h-32.1v26.7h-12.4V9.1Zm44.5,26.6c1.87,0,3.35-.6,4.45-1.8,1.1-1.2,1.65-2.77,1.65-4.7v-1.9c0-1.93-.55-3.5-1.65-4.7s-2.58-1.8-4.45-1.8h-32.1v14.9h32.1Z"/><path class="cls-1" d="M152.5,9.1h12.4V62.4h37v11.7h-49.4V9.1Z"/><path class="cls-1" d="M211.8,78L248.9,0l10,5.2-37.1,78-10-5.2Z"/><path class="cls-1" d="M293.4,20.8h-24.7V9.1h61.8v11.7h-24.7v53.3h-12.4V20.8Z"/><path class="cls-1" d="M375.59,9.1h11.1l19.9,27.3,19.6-27.3h11.2V74.1h-12.4V30.4l-12.3,17.7h-12.4l-12.3-17.7v43.7h-12.4V9.1Z"/><path class="cls-1" d="M475.69,9.1h18.5l25.3,65h-13.3l-6.4-16.6h-30.1l-6.3,16.6h-13.1l25.4-65Zm19.9,36.7l-11-26.9-10.6,26.9h21.6Z"/><path class="cls-1" d="M544.79,20.8h-24.7V9.1h61.8v11.7h-24.7v53.3h-12.4V20.8Z"/><path class="cls-1" d="M596.09,9.1h60.5v11.7h-48.1v14.9h35.8v11.7h-35.8v15h48.1v11.7h-60.5V9.1Z"/></g></g></svg>